<svg xmlns="http://www.w3.org/2000/svg" width="716" height="288" viewBox="0 0 716 288" role="img" aria-label="Mean log1p likes declines with arrival time under both groupings">
<style>
  text { font-family: -apple-system, "Helvetica Neue", Helvetica, Arial, sans-serif; }
  .ttl { font-size: 12px; font-weight: 600; fill: #1F2328; }
  .ax  { font-size: 10px; fill: #6B7280; }
  .val { font-size: 10px; font-weight: 600; fill: #1C6C68; }
  .grid { stroke: #E5E7EB; stroke-width: 1; }
  .ln  { fill: none; stroke: #1C6C68; stroke-width: 2; stroke-linejoin: round; }
  .pt  { fill: #1C6C68; stroke: #FFFFFF; stroke-width: 2; }
  .cap { font-size: 10px; fill: #6B7280; }
</style>
<rect width="716" height="288" fill="#FFFFFF"/>
<text x="46" y="20" class="ttl">By position within its video (decile)</text>
<line x1="46" y1="234.0" x2="346" y2="234.0" class="grid"/>
<text x="36" y="238.0" class="ax" text-anchor="end">0.0</text>
<line x1="46" y1="184.0" x2="346" y2="184.0" class="grid"/>
<text x="36" y="188.0" class="ax" text-anchor="end">0.2</text>
<line x1="46" y1="134.0" x2="346" y2="134.0" class="grid"/>
<text x="36" y="138.0" class="ax" text-anchor="end">0.4</text>
<line x1="46" y1="84.0" x2="346" y2="84.0" class="grid"/>
<text x="36" y="88.0" class="ax" text-anchor="end">0.6</text>
<line x1="46" y1="34.0" x2="346" y2="34.0" class="grid"/>
<text x="36" y="38.0" class="ax" text-anchor="end">0.8</text>
<path d="M46.0,53.8 L79.3,132.8 L112.7,158.5 L146.0,170.5 L179.3,178.0 L212.7,184.5 L246.0,187.8 L279.3,191.0 L312.7,193.2 L346.0,200.8" class="ln"/>
<circle cx="46.0" cy="53.8" r="4" class="pt"/>
<text x="46.0" y="41.8" class="val" text-anchor="middle">0.721</text>
<text x="46.0" y="252.0" class="ax" text-anchor="middle">1</text>
<circle cx="79.3" cy="132.8" r="4" class="pt"/>
<text x="79.3" y="252.0" class="ax" text-anchor="middle">2</text>
<circle cx="112.7" cy="158.5" r="4" class="pt"/>
<text x="112.7" y="252.0" class="ax" text-anchor="middle">3</text>
<circle cx="146.0" cy="170.5" r="4" class="pt"/>
<text x="146.0" y="252.0" class="ax" text-anchor="middle">4</text>
<circle cx="179.3" cy="178.0" r="4" class="pt"/>
<text x="179.3" y="252.0" class="ax" text-anchor="middle">5</text>
<circle cx="212.7" cy="184.5" r="4" class="pt"/>
<text x="212.7" y="252.0" class="ax" text-anchor="middle">6</text>
<circle cx="246.0" cy="187.8" r="4" class="pt"/>
<text x="246.0" y="252.0" class="ax" text-anchor="middle">7</text>
<circle cx="279.3" cy="191.0" r="4" class="pt"/>
<text x="279.3" y="252.0" class="ax" text-anchor="middle">8</text>
<circle cx="312.7" cy="193.2" r="4" class="pt"/>
<text x="312.7" y="252.0" class="ax" text-anchor="middle">9</text>
<circle cx="346.0" cy="200.8" r="4" class="pt"/>
<text x="346.0" y="188.8" class="val" text-anchor="middle">0.133</text>
<text x="346.0" y="252.0" class="ax" text-anchor="middle">10</text>
<text x="400" y="20" class="ttl">By absolute age at posting</text>
<line x1="400" y1="234.0" x2="700" y2="234.0" class="grid"/>
<line x1="400" y1="184.0" x2="700" y2="184.0" class="grid"/>
<line x1="400" y1="134.0" x2="700" y2="134.0" class="grid"/>
<line x1="400" y1="84.0" x2="700" y2="84.0" class="grid"/>
<line x1="400" y1="34.0" x2="700" y2="34.0" class="grid"/>
<path d="M400.0,43.0 L460.0,137.2 L520.0,176.5 L580.0,188.8 L640.0,193.2 L700.0,201.8" class="ln"/>
<circle cx="400.0" cy="43.0" r="4" class="pt"/>
<text x="400.0" y="31.0" class="val" text-anchor="middle">0.764</text>
<text x="400.0" y="252.0" class="ax" text-anchor="middle">&lt;1h</text>
<circle cx="460.0" cy="137.2" r="4" class="pt"/>
<text x="460.0" y="252.0" class="ax" text-anchor="middle">1-6h</text>
<circle cx="520.0" cy="176.5" r="4" class="pt"/>
<text x="520.0" y="252.0" class="ax" text-anchor="middle">6-24h</text>
<circle cx="580.0" cy="188.8" r="4" class="pt"/>
<text x="580.0" y="252.0" class="ax" text-anchor="middle">1-7d</text>
<circle cx="640.0" cy="193.2" r="4" class="pt"/>
<text x="640.0" y="252.0" class="ax" text-anchor="middle">1-30d</text>
<circle cx="700.0" cy="201.8" r="4" class="pt"/>
<text x="700.0" y="189.8" class="val" text-anchor="middle">0.129</text>
<text x="700.0" y="252.0" class="ax" text-anchor="middle">&gt;30d</text>
<text x="46" y="282" class="cap">Mean log1p(likes), 1,345,353 comments. Shared y-axis. Both groupings decline by roughly 5.5x.</text>
</svg>
